<svg width="655" height="550" viewBox="0 0 655 550" fill="none" xmlns="http://www.w3.org/2000/svg">
<g clip-path="url(#clip0_6837_16744)">
<path d="M325.8 490.546L331.545 471.836C324.633 464.228 315.968 458.423 306.303 454.924C315.746 470.568 306.595 490.976 310.408 508.847C311.64 514.412 314.109 519.628 317.631 524.109C321.152 528.59 325.638 532.221 330.753 534.733L339.472 545.535C344.042 537.55 346.827 528.669 347.635 519.504C348.442 510.338 347.253 501.107 344.15 492.446C342.361 487.604 339.969 483.007 337.031 478.763C331.85 484.854 325.8 490.546 325.8 490.546Z" fill="#F2F2F2"/>
<path d="M294.211 492.937L291.008 473.628C281.429 469.902 271.084 468.57 260.873 469.749C276.302 479.54 277.213 501.887 288.596 516.181C292.181 520.612 296.716 524.18 301.867 526.62C307.017 529.06 312.651 530.31 318.35 530.276L330.971 536.057C331.5 526.871 330.032 517.68 326.668 509.117C323.303 500.554 318.122 492.822 311.482 486.454C307.721 482.918 303.53 479.87 299.008 477.382C297.087 485.143 294.211 492.937 294.211 492.937Z" fill="#F2F2F2"/>
<path d="M482.239 540.733L473.389 540.732L469.18 506.6L482.241 506.6L482.239 540.733Z" fill="#FFB6B6"/>
<path d="M484.495 549.311L455.962 549.31V548.949C455.962 546.003 457.132 543.179 459.215 541.096C461.298 539.013 464.122 537.843 467.068 537.843H467.069L472.281 533.889L482.005 537.844L484.496 537.844L484.495 549.311Z" fill="#2F2E41"/>
<path d="M625.186 508.455L619.152 514.929L591.312 494.736L600.218 485.183L625.186 508.455Z" fill="#FFB6B6"/>
<path d="M633 512.653L613.545 533.525L613.281 533.279C611.126 531.271 609.858 528.489 609.754 525.546C609.65 522.602 610.72 519.738 612.728 517.583L612.729 517.582L613.39 511.074L622.913 506.656L624.611 504.834L633 512.653Z" fill="#2F2E41"/>
<path d="M612.092 489.273L602.739 508.835L545.303 470.806L536.947 459.422L509.55 422.093L498.413 439.764L490.664 458.237C488.138 459.884 486.01 462.072 484.433 464.642C482.856 467.212 481.87 470.1 481.545 473.097L481.19 476.368L486.087 520.388L467.475 526.103L456.786 466.968L460.28 454.154L463.878 436.167L481.99 379.327H530.458L558.257 438.499L560.289 450.556L568.171 459.602L612.092 489.273Z" fill="#2F2E41"/>
<path d="M511.367 286.332L519.526 292.545L529.365 295.568C529.365 295.568 533.433 352.788 537.098 356.454C540.764 360.119 537.458 360.217 538.195 364.979C538.931 369.74 540.721 379.501 540.721 379.501C515.98 392.597 494.651 392.949 477.518 377.623C477.299 376.675 477.41 375.681 477.834 374.805C478.257 373.929 478.967 373.224 479.846 372.807C483.035 371.115 476.907 363.218 479.513 361.897C482.119 360.577 478.453 349.123 478.453 349.123L480.858 325.225L478.958 321.405L483.594 298.029L491.638 295.092L494.851 287.35L511.367 286.332Z" fill="#3F3D56"/>
<path d="M516.478 388.031C516.441 386.997 516.632 385.969 517.036 385.017C517.44 384.065 518.048 383.213 518.817 382.522C519.585 381.83 520.496 381.316 521.486 381.015C522.475 380.713 523.518 380.633 524.542 380.778L536.04 358.428L542.446 369.81L530.545 389.289C530.187 390.993 529.216 392.506 527.816 393.541C526.417 394.577 524.687 395.063 522.953 394.908C521.219 394.753 519.602 393.967 518.409 392.7C517.215 391.432 516.528 389.771 516.478 388.031H516.478Z" fill="#FFB6B6"/>
<path d="M535.842 382.563L560.505 344.339L560.424 344.163C560.331 343.961 554.746 331.9 549.334 320.852C548.501 319.15 547.672 317.473 546.867 315.867C546.52 315.173 546.178 314.495 545.841 313.831C543.569 309.35 541.583 305.646 540.397 303.887C537.775 299.909 533.872 296.948 529.335 295.495L529.221 295.466L529.112 295.511C526.893 296.448 525.059 298.112 523.913 300.231C522.767 302.349 522.377 304.795 522.807 307.165C524.947 318.596 529.713 329.373 536.731 338.646L540.73 343.916L526.835 374.124L535.842 382.563Z" fill="#3F3D56"/>
<path d="M451.035 236.043C451.714 236.822 452.214 237.741 452.499 238.735C452.785 239.729 452.849 240.773 452.687 241.795C452.525 242.816 452.142 243.789 451.563 244.646C450.984 245.503 450.225 246.223 449.338 246.754L454.479 271.357L442.335 266.549L439.315 243.923C438.52 242.374 438.322 240.587 438.757 238.902C439.192 237.216 440.23 235.748 441.675 234.777C443.119 233.806 444.87 233.398 446.595 233.631C448.32 233.864 449.9 234.722 451.035 236.043H451.035Z" fill="#FFB6B6"/>
<path d="M439.435 252.484L444.345 297.708L444.519 297.794C444.663 297.864 450.884 300.916 458.522 304.55C459.81 305.163 459.625 307.819 460.972 308.454C461.899 308.891 464.349 307.304 465.286 307.743C473.634 311.646 482.074 315.442 485.438 316.471C489.98 317.91 494.877 317.752 499.316 316.024L499.424 315.975L499.48 315.871C500.614 313.746 500.99 311.298 500.547 308.931C500.103 306.563 498.866 304.418 497.039 302.848C488.179 295.315 477.69 289.944 466.398 287.16L459.974 285.584L451.746 253.368L439.435 252.484Z" fill="#3F3D56"/>
<path d="M502.668 283.77C511.581 283.77 518.807 276.544 518.807 267.631C518.807 258.718 511.581 251.492 502.668 251.492C493.755 251.492 486.529 258.718 486.529 267.631C486.529 276.544 493.755 283.77 502.668 283.77Z" fill="#FFB6B6"/>
<path d="M486.645 256.817C487.972 252.955 494.579 250.277 505.289 249.905C516 249.532 518.717 262.155 518.717 262.155C525.867 267.955 511.082 283.484 510.366 282.925L510.688 280.007C511.221 275.174 513.484 271.404 510.606 266.367L507.842 266.399C504.273 267.085 500.704 267.772 497.135 268.458L501.36 264.738L501.241 264.553C499.444 265.489 497.488 266.083 495.473 266.305C493.202 266.438 490.719 265.534 489.631 263.536C489.341 262.987 489.163 262.385 489.109 261.766C486.047 262.99 484.646 266.765 484.646 266.765C484.646 266.765 485.317 260.678 486.645 256.817Z" fill="#2F2E41"/>
<path d="M172.022 257.785C171.804 257.507 171.568 257.243 171.316 256.994C171.378 256.91 171.439 256.818 171.501 256.733L172.022 257.785Z" fill="#2F2E41"/>
<path d="M175.161 322.694C172.521 327.383 167.249 330 162.023 331.281C156.152 332.819 149.971 332.699 144.164 330.936C143.428 330.698 142.691 330.422 141.977 330.115C142.32 329.204 142.592 328.267 142.791 327.314C143.058 326.024 143.192 324.71 143.19 323.392C142.608 324.527 141.855 325.565 140.957 326.47C140.264 327.198 139.476 327.83 138.616 328.35C135.947 326.73 133.636 324.584 131.824 322.042C131.939 321.758 132.055 321.474 132.162 321.19C132.719 319.707 133.161 318.183 133.482 316.631C133.918 314.534 134.137 312.396 134.134 310.254C133.188 312.1 131.961 313.788 130.497 315.257C130.058 315.727 129.591 316.171 129.1 316.585C128.339 314.274 128.045 311.835 128.235 309.41C128.424 306.985 129.094 304.621 130.205 302.457C133.244 296.839 139.138 293.501 144.387 289.871C149.644 286.241 154.901 281.329 155.346 274.952C155.645 270.647 153.65 266.334 154.448 262.098C154.784 260.311 155.603 258.651 156.817 257.298C158.031 255.946 159.593 254.952 161.333 254.426C163.073 253.899 164.923 253.86 166.684 254.313C168.444 254.766 170.046 255.694 171.316 256.994C168.338 261.215 165.376 265.582 164.171 270.601C162.943 275.712 163.949 281.706 167.978 285.09C169.359 286.256 171.055 287.085 172.122 288.543C173.542 290.477 173.549 293.056 173.78 295.435C174.24 300.062 175.752 304.513 176.565 309.095C177.386 313.669 177.432 318.634 175.161 322.694Z" fill="#2F2E41"/>
<path d="M121.044 513.005L128.048 518.416L152.255 493.976L141.917 485.989L121.044 513.005Z" fill="#A0616A"/>
<path d="M121.342 507.717L132.924 515.611L129.259 520.355L134.167 535.758C134.41 536.519 134.403 537.337 134.147 538.094C133.892 538.85 133.401 539.505 132.747 539.963C132.093 540.421 131.31 540.658 130.512 540.639C129.713 540.62 128.942 540.347 128.31 539.858L115.129 529.673L116.483 523.226L111.97 527.232L107 523.392L121.342 507.717Z" fill="#2F2E41"/>
<path d="M156.578 271.419C156.577 274.156 157.248 276.851 158.532 279.267C159.815 281.684 161.673 283.749 163.94 285.28C166.208 286.812 168.817 287.763 171.539 288.051C174.26 288.338 177.011 287.954 179.549 286.93C182.087 285.907 184.334 284.276 186.095 282.181C187.856 280.086 189.075 277.591 189.646 274.914C190.217 272.238 190.123 269.463 189.371 266.831C188.619 264.2 187.232 261.794 185.333 259.823L185.253 259.743C185.119 259.603 184.985 259.462 184.845 259.329C184.844 259.329 184.843 259.328 184.842 259.328C184.842 259.328 184.841 259.327 184.84 259.327C184.84 259.326 184.839 259.325 184.839 259.324C184.838 259.324 184.838 259.323 184.838 259.322C184.664 259.161 184.491 259.001 184.31 258.847C181.368 256.266 177.232 253.464 173.013 253.464C163.777 253.464 156.578 262.184 156.578 271.419Z" fill="#2F2E41"/>
<path d="M251.869 262.834C251.949 263.725 251.832 264.624 251.527 265.466C251.223 266.307 250.737 267.072 250.105 267.706C249.473 268.34 248.709 268.827 247.868 269.134C247.027 269.441 246.129 269.56 245.237 269.482L203.839 306.86L196.715 295.608L239.648 262.405C239.878 260.915 240.646 259.562 241.808 258.601C242.969 257.64 244.442 257.138 245.949 257.191C247.455 257.244 248.89 257.848 249.981 258.888C251.072 259.928 251.744 261.332 251.869 262.834V262.834Z" fill="#A0616A"/>
<path d="M186.146 318.142C186.146 318.142 187.686 320.987 192.948 316.595C197.16 313.078 217.34 297.811 221.688 291.554C222.681 291.948 223.776 292 224.801 291.702C225.827 291.404 226.724 290.774 227.352 289.91L215.44 279.477C211.876 279.888 211.952 282.282 212.323 283.641L203.338 287.712L180.135 302.541L184.996 316.106L186.146 318.142Z" fill="#445BC7"/>
<path d="M163.668 344.352L162.8 348.484L162.063 363.726L194.501 365.509L193.494 342.066L190.349 336.9L163.668 344.352Z" fill="#A0616A"/>
<path d="M177.415 289.306C185.158 289.306 191.434 283.03 191.434 275.287C191.434 267.545 185.158 261.268 177.415 261.268C169.673 261.268 163.396 267.545 163.396 275.287C163.396 283.03 169.673 289.306 177.415 289.306Z" fill="#A0616A"/>
<path d="M152.527 326.995L152.44 315.342C152.438 311.149 153.857 307.079 156.466 303.796C159.074 300.514 162.718 298.211 166.803 297.266L166.856 297.253L169.628 293.518L180.89 294.645L182.954 298.864L191.115 303.723L194.257 313.824C195.62 314.732 196.781 315.911 197.669 317.287C198.557 318.663 199.153 320.207 199.419 321.823C200.485 328.637 195.715 335.455 195.147 336.237L193.685 344.472L161.876 350.084L161.618 350.117L152.527 326.995Z" fill="#445BC7"/>
<path d="M194.57 272.788C192.934 273.824 191.238 274.759 189.489 275.589C187.714 276.442 185.858 277.113 183.948 277.592C183.402 276.393 182.733 275.254 181.953 274.192C182.154 275.45 182.159 276.732 181.968 277.991C178.803 278.502 175.561 278.236 172.521 277.216L169.881 272.788L169.682 277.73C167.495 278.129 165.315 278.505 163.128 278.897C162.998 278.912 162.867 278.943 162.744 278.966C161.386 272.842 163.312 266.096 167.595 262.013C169.721 260.007 172.373 258.647 175.242 258.09C178.112 257.533 181.08 257.802 183.803 258.867C184.148 259.005 184.501 259.158 184.839 259.32C184.839 259.321 184.839 259.322 184.839 259.323C184.84 259.324 184.84 259.324 184.841 259.325C184.842 259.326 184.842 259.326 184.843 259.327C184.844 259.327 184.845 259.327 184.846 259.327C185.046 259.427 185.215 259.665 185.437 259.642C195.015 258.575 195.322 266.004 194.57 272.788Z" fill="#2F2E41"/>
<path d="M171.248 494.928L178.263 500.325L202.421 475.836L192.067 467.87L171.248 494.928Z" fill="#A0616A"/>
<path d="M172.171 490.129L183.769 498L180.114 502.751L185.054 518.144C185.298 518.904 185.292 519.723 185.038 520.48C184.784 521.237 184.295 521.893 183.642 522.352C182.989 522.811 182.206 523.05 181.408 523.032C180.609 523.015 179.837 522.743 179.205 522.256L166.003 512.098L167.343 505.647L162.839 509.663L157.861 505.833L172.171 490.129Z" fill="#2F2E41"/>
<path d="M148.485 465.039L148.484 464.948L151.809 459.219L148.414 451.761L148.312 432.6L148.863 429.724C149.603 425.856 149.387 421.865 148.235 418.098L148.173 406.435C148.054 403.514 152.58 400.944 151.525 398.508C141.548 375.485 161.712 357.922 161.848 357.781L162.261 357.353L164.496 359.046L166.624 359.049L195.34 364.281L195.548 364.668C196.677 366.786 198.857 374.088 198.986 377.393C200.417 379.05 216.719 397.914 218.168 399.224C227.961 408.085 233.568 422.751 236.038 430.704C236.652 432.67 236.776 434.755 236.399 436.78C236.022 438.804 235.155 440.706 233.875 442.319L196.803 482.925L186.826 473.716L206.886 437.163L205.439 433.454C202.844 432.975 200.495 431.611 198.794 429.593L194.732 424.772C193.607 423.44 192.892 421.812 192.674 420.083L190.211 419.786L181.387 410.522L175.266 465.96L173.601 470.34L144.618 504.414L132.339 496.739L148.485 465.039Z" fill="#2F2E41"/>
<path d="M144.058 226.995C143.501 227.696 143.105 228.51 142.897 229.381C142.689 230.252 142.675 231.158 142.854 232.035C143.034 232.912 143.404 233.738 143.939 234.457C144.473 235.175 145.158 235.768 145.946 236.193L136.729 263.478L144.255 292.392L156.39 286.906L148.902 265.097L154.504 233.352C155.13 231.981 155.232 230.427 154.79 228.987C154.348 227.546 153.392 226.317 152.105 225.533C150.817 224.75 149.287 224.466 147.804 224.735C146.321 225.004 144.988 225.808 144.058 226.995Z" fill="#A0616A"/>
<path d="M155.167 316.216C155.167 316.216 152.316 317.746 150.334 311.185C148.747 305.932 137.948 277.412 137.753 269.796C136.708 269.579 135.764 269.02 135.071 268.208C134.378 267.396 133.975 266.376 133.925 265.31L149.61 263.139C152.362 265.44 150.983 267.399 149.926 268.33L155.268 277.379L166.434 301.808L157.246 315.146L155.167 316.216Z" fill="#445BC7"/>
<path d="M163.125 278.895C164.736 274.038 167.624 269.703 171.487 266.347C175.35 262.99 180.045 260.734 185.079 259.817C185.099 259.81 185.166 259.783 185.253 259.743C185.307 259.71 185.373 259.676 185.44 259.643C185.24 259.529 185.046 259.429 184.845 259.329C184.844 259.329 184.843 259.328 184.843 259.328C184.842 259.328 184.841 259.327 184.84 259.327C184.84 259.326 184.839 259.325 184.839 259.324C184.839 259.324 184.838 259.323 184.838 259.322C184.665 259.161 184.491 259.001 184.31 258.847L183.802 258.867C183.802 258.867 165.94 256.039 163.125 278.895Z" fill="#FD6584"/>
<path d="M393.604 435.114C395.553 432.184 394.399 427.99 391.027 425.746C387.654 423.502 383.339 424.058 381.39 426.988C379.441 429.918 380.594 434.113 383.967 436.356C387.34 438.6 391.654 438.044 393.604 435.114Z" fill="#F2F2F2"/>
<path d="M354.032 325.752C355.981 322.822 354.827 318.627 351.454 316.383C348.082 314.14 343.767 314.696 341.818 317.626C339.868 320.556 341.022 324.75 344.395 326.994C347.768 329.238 352.082 328.682 354.032 325.752Z" fill="#F2F2F2"/>
<path d="M519.514 494.112C521.463 491.182 520.309 486.988 516.937 484.744C513.564 482.5 509.25 483.056 507.3 485.986C505.351 488.916 506.505 493.111 509.877 495.354C513.25 497.598 517.565 497.042 519.514 494.112Z" fill="#F2F2F2"/>
<path d="M184.952 142.282C186.902 139.352 185.748 135.158 182.375 132.914C179.003 130.67 174.688 131.226 172.739 134.156C170.789 137.086 171.943 141.281 175.316 143.525C178.689 145.769 183.003 145.212 184.952 142.282Z" fill="#F2F2F2"/>
<path d="M341.081 107.747C343.031 104.817 341.877 100.622 338.504 98.3784C335.131 96.1345 330.817 96.6907 328.868 99.6208C326.918 102.551 328.072 106.745 331.445 108.989C334.817 111.233 339.132 110.677 341.081 107.747Z" fill="#F2F2F2"/>
<path d="M267.19 397.495C269.139 394.565 267.985 390.371 264.613 388.127C261.24 385.883 256.925 386.439 254.976 389.369C253.027 392.299 254.18 396.494 257.553 398.738C260.926 400.982 265.24 400.425 267.19 397.495Z" fill="#E6E6E6"/>
<path d="M589.249 550H121.371C121.144 549.999 120.927 549.909 120.767 549.748C120.607 549.588 120.517 549.37 120.517 549.143C120.517 548.917 120.607 548.699 120.767 548.538C120.927 548.378 121.144 548.287 121.371 548.287H589.249C589.476 548.287 589.694 548.377 589.854 548.538C590.015 548.698 590.105 548.916 590.105 549.143C590.105 549.371 590.015 549.588 589.854 549.749C589.694 549.91 589.476 550 589.249 550Z" fill="#CCCCCC"/>
<path d="M208.453 265.477C204.518 265.465 200.724 264.004 197.798 261.372C194.872 258.74 193.019 255.121 192.592 251.209L183.458 166.376C183.009 162.164 184.25 157.946 186.907 154.648C189.564 151.349 193.422 149.239 197.633 148.781L468.846 119.579C473.058 119.13 477.276 120.37 480.575 123.027C483.874 125.684 485.984 129.542 486.442 133.753L495.576 218.585C496.025 222.797 494.784 227.015 492.127 230.314C489.47 233.613 485.612 235.723 481.401 236.181L481.363 235.823L481.401 236.181L210.188 265.383C209.612 265.446 209.033 265.477 208.453 265.477Z" fill="#E6E6E6"/>
<path d="M465.86 123.517C465.35 123.517 464.841 123.545 464.334 123.599L202.899 151.749C201.071 151.946 199.3 152.501 197.686 153.382C196.073 154.263 194.649 155.454 193.495 156.886C192.342 158.318 191.482 159.963 190.964 161.727C190.446 163.491 190.281 165.34 190.478 167.168L195.096 210.06C195.843 216.994 197.948 223.713 201.291 229.834C204.634 235.954 209.15 241.356 214.581 245.732C220.012 250.107 226.252 253.369 232.944 255.333C239.636 257.297 246.649 257.923 253.583 257.177L437.415 237.383C444.328 236.638 451.027 234.54 457.129 231.207C463.231 227.873 468.616 223.371 472.978 217.957C477.34 212.542 480.593 206.321 482.55 199.65C484.508 192.978 485.133 185.986 484.389 179.073L479.753 136.02C479.383 132.591 477.761 129.419 475.198 127.112C472.634 124.804 469.309 123.524 465.86 123.517V123.517Z" fill="white"/>
<path d="M410.805 168.155L264.686 183.889C264.268 183.934 263.845 183.897 263.442 183.779C263.039 183.661 262.662 183.465 262.335 183.201C262.007 182.938 261.735 182.612 261.533 182.244C261.332 181.875 261.205 181.47 261.16 181.052C261.115 180.634 261.153 180.212 261.271 179.808C261.39 179.405 261.587 179.029 261.85 178.702C262.114 178.375 262.44 178.103 262.809 177.902C263.178 177.701 263.583 177.575 264.001 177.53L410.121 161.797C410.538 161.751 410.961 161.789 411.364 161.906C411.768 162.024 412.144 162.221 412.471 162.484C412.799 162.748 413.071 163.073 413.273 163.442C413.474 163.811 413.601 164.215 413.646 164.633C413.691 165.051 413.654 165.474 413.535 165.877C413.417 166.28 413.22 166.656 412.956 166.983C412.692 167.31 412.366 167.582 411.997 167.783C411.628 167.985 411.223 168.111 410.805 168.155Z" fill="#445BC7"/>
<path d="M412.906 187.67L266.787 203.403C265.944 203.494 265.099 203.246 264.439 202.714C263.778 202.182 263.356 201.409 263.265 200.566C263.175 199.723 263.423 198.878 263.955 198.218C264.487 197.558 265.259 197.135 266.102 197.045L412.222 181.311C413.065 181.221 413.91 181.469 414.57 182.001C415.231 182.533 415.653 183.305 415.743 184.148C415.834 184.992 415.586 185.836 415.054 186.497C414.522 187.157 413.75 187.579 412.906 187.67Z" fill="#445BC7"/>
<path d="M285.916 221.084L268.888 222.917C268.044 223.008 267.2 222.76 266.539 222.228C265.879 221.696 265.457 220.924 265.366 220.08C265.275 219.237 265.523 218.392 266.055 217.732C266.587 217.072 267.36 216.65 268.203 216.559L285.231 214.725C285.649 214.68 286.072 214.717 286.475 214.835C286.878 214.953 287.254 215.149 287.582 215.413C287.909 215.676 288.182 216.002 288.383 216.37C288.585 216.739 288.712 217.144 288.757 217.562C288.802 217.98 288.764 218.402 288.646 218.806C288.527 219.209 288.33 219.585 288.066 219.912C287.803 220.239 287.477 220.511 287.108 220.712C286.739 220.913 286.334 221.039 285.916 221.084Z" fill="#445BC7"/>
<path d="M202.704 169.956C205.883 169.956 208.46 167.379 208.46 164.2C208.46 161.021 205.883 158.444 202.704 158.444C199.525 158.444 196.948 161.021 196.948 164.2C196.948 167.379 199.525 169.956 202.704 169.956Z" fill="#3F3D56"/>
<path d="M460.28 141.176C463.459 141.176 466.036 138.599 466.036 135.42C466.036 132.242 463.459 129.665 460.28 129.665C457.101 129.665 454.524 132.242 454.524 135.42C454.524 138.599 457.101 141.176 460.28 141.176Z" fill="#3F3D56"/>
<path d="M382.464 259.343C381.935 258.878 381.516 258.302 381.237 257.655C380.959 257.009 380.828 256.308 380.855 255.605C381.144 247.244 379.767 238.91 376.804 231.087C376.553 230.429 376.451 229.724 376.507 229.022C376.562 228.32 376.774 227.64 377.125 227.03C377.462 226.444 377.923 225.938 378.476 225.549C379.029 225.16 379.66 224.897 380.326 224.778C387.016 220.741 393.875 219.607 400.715 221.41C401.818 221.247 402.943 221.484 403.887 222.076C404.832 222.668 405.534 223.577 405.869 224.641C408.638 233.632 410.178 242.956 410.448 252.359C410.474 253.488 410.092 254.587 409.372 255.456C408.652 256.325 407.643 256.905 406.53 257.09L386.288 260.434C385.61 260.548 384.914 260.509 384.253 260.32C383.591 260.131 382.98 259.797 382.464 259.343Z" fill="#445BC7"/>
<path d="M384.261 234.984L401.298 232.169C401.438 232.147 401.573 232.096 401.693 232.022C401.814 231.947 401.919 231.849 402.001 231.734C402.084 231.618 402.143 231.488 402.176 231.35C402.208 231.212 402.213 231.068 402.19 230.928C402.166 230.788 402.116 230.654 402.041 230.534C401.966 230.413 401.868 230.309 401.752 230.226C401.637 230.144 401.506 230.085 401.368 230.053C401.23 230.021 401.086 230.016 400.946 230.04L383.91 232.854C383.628 232.902 383.376 233.059 383.21 233.291C383.044 233.524 382.977 233.813 383.023 234.095C383.07 234.377 383.226 234.629 383.458 234.795C383.691 234.962 383.979 235.03 384.261 234.984Z" fill="white"/>
<path d="M385.669 243.502L402.705 240.688C402.988 240.641 403.24 240.484 403.407 240.252C403.574 240.019 403.641 239.729 403.594 239.447C403.548 239.165 403.391 238.912 403.158 238.746C402.925 238.579 402.636 238.512 402.354 238.558L385.317 241.373C385.177 241.396 385.043 241.446 384.922 241.521C384.801 241.595 384.697 241.693 384.614 241.809C384.531 241.924 384.472 242.054 384.439 242.192C384.407 242.331 384.402 242.474 384.426 242.614C384.449 242.754 384.499 242.888 384.574 243.009C384.649 243.129 384.747 243.234 384.863 243.316C384.978 243.399 385.109 243.458 385.247 243.49C385.385 243.522 385.529 243.526 385.669 243.502Z" fill="white"/>
<path d="M387.075 252.021L404.112 249.206C404.395 249.16 404.647 249.003 404.814 248.77C404.98 248.537 405.048 248.248 405.001 247.965C404.954 247.683 404.797 247.431 404.565 247.264C404.332 247.097 404.043 247.03 403.76 247.077L386.724 249.891C386.584 249.914 386.45 249.965 386.33 250.04C386.209 250.114 386.105 250.212 386.022 250.328C385.94 250.443 385.881 250.573 385.848 250.711C385.816 250.849 385.812 250.992 385.835 251.132C385.858 251.272 385.908 251.406 385.983 251.526C386.058 251.646 386.156 251.751 386.271 251.833C386.386 251.916 386.517 251.975 386.655 252.007C386.793 252.039 386.936 252.044 387.075 252.021Z" fill="white"/>
</g>
<rect x="564" y="37" width="56.8869" height="56.8869" rx="10.6663" fill="#445BC7"/>
<path fill-rule="evenodd" clip-rule="evenodd" d="M604.295 64.0472C604.295 64.5414 603.893 64.9432 603.399 64.9432H603.388V64.9219C602.888 64.9219 602.483 64.5177 602.481 64.0176V64.0152V61.0026C602.481 57.3843 600.502 55.4052 596.895 55.4052H588.006C584.396 55.4052 582.405 57.3962 582.405 61.0026V69.8912C582.405 73.4869 584.396 75.4779 588.002 75.4779H596.891C600.497 75.4779 602.478 73.4869 602.478 69.8912C602.478 69.391 602.883 68.9845 603.384 68.9845C603.886 68.9845 604.291 69.391 604.291 69.8912C604.295 74.4599 601.46 77.2947 596.895 77.2947H588.002C583.427 77.2947 580.592 74.4599 580.592 69.8947V61.0061C580.592 56.4268 583.427 53.5919 588.002 53.5919H596.891C601.438 53.5919 604.295 56.4267 604.295 61.0026V64.0472ZM591.037 67L596.034 62.0022C596.381 61.655 596.944 61.655 597.291 62.0022C597.638 62.3495 597.638 62.9124 597.291 63.2597L591.665 68.8856C591.498 69.0515 591.272 69.1451 591.037 69.1451C590.8 69.1451 590.575 69.0515 590.408 68.8856L587.596 66.072C587.248 65.7248 587.248 65.1618 587.596 64.8146C587.943 64.4673 588.506 64.4673 588.853 64.8146L591.037 67Z" fill="white"/>
<rect x="633" y="405.964" width="15.5061" height="15.5061" rx="2" transform="rotate(-45 633 405.964)" fill="#FF8345"/>
<rect x="348" y="61.0711" width="10" height="10" rx="2" transform="rotate(-45 348 61.0711)" fill="#FF8345"/>
<rect x="362" y="201.071" width="10" height="10" rx="2" transform="rotate(-45 362 201.071)" fill="#445BC7"/>
<rect x="50" y="7.07108" width="10" height="10" rx="2" transform="rotate(-45 50 7.07108)" fill="#445BC7"/>
<rect x="26" y="291.071" width="10" height="10" rx="2" transform="rotate(-45 26 291.071)" fill="#445BC7"/>
<rect x="114.041" y="37" width="56.8869" height="56.8869" rx="10.6663" transform="rotate(25 114.041 37)" fill="#FF8345"/>
<path d="M128.736 88.2074C128.602 88.149 128.487 88.0546 128.403 87.9344L124.239 82.4544L118.16 82.805C117.167 82.865 116.312 82.1079 116.252 81.1138C116.251 81.1017 116.25 81.0895 116.25 81.0762C116.236 80.6657 116.352 80.2633 116.581 79.923L120.128 74.7849L118.043 68.9427C117.708 67.9758 118.201 66.9167 119.158 66.5507C119.533 66.4037 119.945 66.3882 120.329 66.507L126.129 68.2101L130.879 64.3143C131.635 63.6728 132.768 63.7643 133.41 64.5203C133.689 64.8478 133.84 65.2646 133.837 65.6937L133.909 71.8586L138.956 75.2254C139.364 75.4957 139.645 75.9223 139.734 76.4045C139.893 77.3206 139.384 78.221 138.518 78.5586L132.743 80.6776L131.888 83.9395C131.754 84.4261 131.256 84.7181 130.766 84.5931C130.287 84.4662 130.001 83.9746 130.128 83.4939L130.973 80.2276C131.136 79.633 131.574 79.1518 132.15 78.9356L137.949 76.7931L132.907 73.4156C132.397 73.0695 132.1 72.4864 132.119 71.8714L132.039 65.7285L127.214 69.681C126.755 70.0917 126.118 70.238 125.525 70.0702L119.725 68.3671L121.784 74.1659C121.991 74.7398 121.908 75.3767 121.561 75.8782L118.015 81.0164L124.088 80.676C124.695 80.6297 125.283 80.9037 125.638 81.3987L129.794 86.8752C130.044 87.2156 130.034 87.683 129.769 88.0132C129.512 88.3468 129.059 88.4589 128.675 88.2875L128.736 88.2074Z" fill="white"/>
<rect y="448.225" width="56.8869" height="56.8869" rx="10.6663" transform="rotate(-45 0 448.225)" fill="#445BC7"/>
<path fill-rule="evenodd" clip-rule="evenodd" d="M39.1895 436.826L37.5445 438.471C36.1701 437.409 34.1823 437.508 32.9228 438.767L30.759 440.931C29.4994 442.191 29.3997 444.177 30.4623 445.552L28.8265 447.189C27.0625 448.953 27.0591 451.819 28.8181 453.578L31.7236 456.484C31.9347 456.695 32.2373 456.786 32.5306 456.726C35.3949 456.139 38.1956 454.856 40.6309 453.015C40.9954 452.745 41.0885 452.254 40.8672 451.865C40.3745 450.999 40.5169 449.943 41.2217 449.238C41.9189 448.541 42.9908 448.403 43.8263 448.9C44.1791 449.11 44.6258 449.049 44.909 448.766C44.9383 448.736 44.9652 448.706 44.9903 448.673C46.8448 446.223 48.1337 443.409 48.7187 440.538C48.7773 440.245 48.6868 439.943 48.4756 439.732L45.5702 436.826C43.8112 435.067 40.9485 435.067 39.1895 436.826ZM46.8746 440.645C46.3534 442.878 45.3653 445.064 43.9885 447.029C42.6015 446.561 41.0378 446.908 39.9643 447.981C38.8991 449.046 38.5463 450.613 38.9964 452.006C37.0429 453.375 34.8649 454.361 32.6366 454.883L30.0748 452.321C29.0088 451.255 29.0122 449.517 30.084 448.446L32.3265 446.2C32.4941 446.032 32.5872 445.807 32.5872 445.57C32.5855 445.334 32.4925 445.109 32.3257 444.942L32.0148 444.633C31.341 443.959 31.3419 442.862 32.0156 442.188L34.1794 440.024C34.7434 439.46 35.6049 439.368 36.2661 439.749L34.0034 442.012C33.6565 442.359 33.6565 442.922 34.0034 443.269C34.3504 443.616 34.9135 443.616 35.2605 443.269L40.4461 438.083C41.5121 437.017 43.2468 437.017 44.3128 438.083L46.8746 440.645ZM43.6844 450.436L44.7688 451.521C45.1157 451.868 45.1157 452.431 44.7688 452.778C44.4218 453.125 43.8587 453.125 43.5117 452.778L42.4273 451.693C42.0804 451.346 42.0804 450.783 42.4273 450.436C42.7743 450.089 43.3374 450.089 43.6844 450.436ZM50.2311 442.787C49.9018 443.116 49.8959 443.635 50.1925 443.982C50.1925 443.982 51.5292 445.576 51.965 446.066C52.446 446.609 52.7954 447.374 52.8541 448.014C52.9387 448.918 52.6781 449.566 51.9239 450.324C51.4286 450.821 48.7537 453.497 46.7323 455.519C46.3846 455.866 46.3846 456.43 46.7315 456.777C47.0785 457.123 47.6416 457.123 47.9885 456.777C49.9395 454.826 52.7158 452.048 53.1834 451.578C54.2989 450.458 54.7573 449.272 54.6248 447.849C54.5301 446.828 54.0332 445.721 53.2949 444.887C52.9906 444.544 52.2169 443.641 51.786 443.137L51.7859 443.137L51.7856 443.137C51.6091 442.931 51.4901 442.792 51.4848 442.787C51.1387 442.44 50.5772 442.44 50.2311 442.787ZM42.3156 459.932C42.4807 459.769 42.8209 459.429 43.2676 458.982C43.6145 458.635 44.1802 458.632 44.5271 458.979C44.8741 459.326 44.8707 459.893 44.5229 460.241C44.0704 460.693 43.7402 461.023 43.5709 461.191C42.4497 462.307 41.2639 462.766 39.8401 462.632C38.8202 462.538 37.7123 462.042 36.8793 461.302C36.5414 461.003 35.6587 460.247 35.1514 459.813C34.9328 459.626 34.784 459.499 34.7784 459.493C34.4323 459.147 34.4323 458.586 34.7784 458.239C35.1078 457.91 35.6257 457.905 35.9743 458.202C35.9743 458.202 37.569 459.538 38.0584 459.972C38.6015 460.453 39.3657 460.804 40.0052 460.862C40.9119 460.947 41.5589 460.686 42.3156 459.932Z" fill="white"/>
<defs>
<clipPath id="clip0_6837_16744">
<rect width="526" height="453" fill="white" transform="translate(107 97)"/>
</clipPath>
</defs>
</svg>
