<svg width="107" height="24" viewBox="0 0 107 24" fill="none" xmlns="http://www.w3.org/2000/svg">
<path d="M9.728 8.432C10.624 8.592 11.384 9.064 12.008 9.848C12.632 10.632 12.944 11.52 12.944 12.512C12.944 13.36 12.72 14.128 12.272 14.816C11.84 15.488 11.208 16.024 10.376 16.424C9.544 16.808 8.576 17 7.472 17H0.8V0.319999H7.16C8.296 0.319999 9.272 0.511999 10.088 0.896C10.904 1.28 11.52 1.8 11.936 2.456C12.352 3.096 12.56 3.816 12.56 4.616C12.56 5.576 12.304 6.376 11.792 7.016C11.28 7.656 10.592 8.128 9.728 8.432ZM3.536 7.328H6.92C7.816 7.328 8.512 7.128 9.008 6.728C9.52 6.312 9.776 5.72 9.776 4.952C9.776 4.2 9.52 3.616 9.008 3.2C8.512 2.768 7.816 2.552 6.92 2.552H3.536V7.328ZM7.232 14.768C8.16 14.768 8.888 14.544 9.416 14.096C9.944 13.648 10.208 13.024 10.208 12.224C10.208 11.408 9.928 10.76 9.368 10.28C8.808 9.8 8.064 9.56 7.136 9.56H3.536V14.768H7.232ZM27.8932 9.776C27.8932 10.352 27.8772 10.792 27.8452 11.096H16.9732C17.0212 12.088 17.2612 12.936 17.6932 13.64C18.1252 14.344 18.6932 14.88 19.3972 15.248C20.1012 15.6 20.8692 15.776 21.7012 15.776C22.7892 15.776 23.7012 15.512 24.4372 14.984C25.1892 14.456 25.6852 13.744 25.9252 12.848H27.7012C27.3812 14.128 26.6932 15.176 25.6372 15.992C24.5972 16.792 23.2852 17.192 21.7012 17.192C20.4692 17.192 19.3652 16.92 18.3892 16.376C17.4132 15.816 16.6452 15.032 16.0852 14.024C15.5412 13 15.2692 11.808 15.2692 10.448C15.2692 9.088 15.5412 7.896 16.0852 6.872C16.6292 5.848 17.3892 5.064 18.3652 4.52C19.3412 3.976 20.4532 3.704 21.7012 3.704C22.9492 3.704 24.0372 3.976 24.9652 4.52C25.9092 5.064 26.6292 5.8 27.1252 6.728C27.6372 7.64 27.8932 8.656 27.8932 9.776ZM26.1892 9.728C26.2052 8.752 26.0052 7.92 25.5892 7.232C25.1892 6.544 24.6372 6.024 23.9332 5.672C23.2292 5.32 22.4612 5.144 21.6292 5.144C20.3812 5.144 19.3172 5.544 18.4372 6.344C17.5572 7.144 17.0692 8.272 16.9732 9.728H26.1892ZM30.1989 10.424C30.1989 9.08 30.4629 7.904 30.9909 6.896C31.5349 5.872 32.2789 5.088 33.2229 4.544C34.1829 3.984 35.2629 3.704 36.4629 3.704C37.7109 3.704 38.7829 3.992 39.6789 4.568C40.5909 5.144 41.2469 5.88 41.6469 6.776V3.896H43.3269V17H41.6469V14.096C41.2309 14.992 40.5669 15.736 39.6549 16.328C38.7589 16.904 37.6869 17.192 36.4389 17.192C35.2549 17.192 34.1829 16.912 33.2229 16.352C32.2789 15.792 31.5349 15 30.9909 13.976C30.4629 12.952 30.1989 11.768 30.1989 10.424ZM41.6469 10.448C41.6469 9.392 41.4309 8.464 40.9989 7.664C40.5669 6.864 39.9749 6.248 39.2229 5.816C38.4869 5.384 37.6709 5.168 36.7749 5.168C35.8469 5.168 35.0149 5.376 34.2789 5.792C33.5429 6.208 32.9589 6.816 32.5269 7.616C32.1109 8.4 31.9029 9.336 31.9029 10.424C31.9029 11.496 32.1109 12.44 32.5269 13.256C32.9589 14.056 33.5429 14.672 34.2789 15.104C35.0149 15.52 35.8469 15.728 36.7749 15.728C37.6709 15.728 38.4869 15.512 39.2229 15.08C39.9749 14.648 40.5669 14.032 40.9989 13.232C41.4309 12.432 41.6469 11.504 41.6469 10.448ZM53.3062 3.656C54.8742 3.656 56.1542 4.144 57.1462 5.12C58.1382 6.08 58.6342 7.48 58.6342 9.32V17H56.9782V9.512C56.9782 8.088 56.6182 7 55.8982 6.248C55.1942 5.496 54.2262 5.12 52.9942 5.12C51.7302 5.12 50.7222 5.52 49.9702 6.32C49.2182 7.12 48.8422 8.296 48.8422 9.848V17H47.1622V3.896H48.8422V6.128C49.2582 5.328 49.8582 4.72 50.6422 4.304C51.4262 3.872 52.3142 3.656 53.3062 3.656ZM71.1577 8.432C72.0537 8.592 72.8137 9.064 73.4377 9.848C74.0617 10.632 74.3737 11.52 74.3737 12.512C74.3737 13.36 74.1497 14.128 73.7017 14.816C73.2697 15.488 72.6377 16.024 71.8057 16.424C70.9737 16.808 70.0057 17 68.9017 17H62.2297V0.319999H68.5897C69.7257 0.319999 70.7017 0.511999 71.5177 0.896C72.3337 1.28 72.9497 1.8 73.3657 2.456C73.7817 3.096 73.9897 3.816 73.9897 4.616C73.9897 5.576 73.7337 6.376 73.2217 7.016C72.7097 7.656 72.0217 8.128 71.1577 8.432ZM64.9657 7.328H68.3497C69.2457 7.328 69.9417 7.128 70.4377 6.728C70.9497 6.312 71.2057 5.72 71.2057 4.952C71.2057 4.2 70.9497 3.616 70.4377 3.2C69.9417 2.768 69.2457 2.552 68.3497 2.552H64.9657V7.328ZM68.6617 14.768C69.5897 14.768 70.3177 14.544 70.8457 14.096C71.3737 13.648 71.6377 13.024 71.6377 12.224C71.6377 11.408 71.3577 10.76 70.7977 10.28C70.2377 9.8 69.4937 9.56 68.5657 9.56H64.9657V14.768H68.6617ZM76.6989 10.424C76.6989 9.08 76.9629 7.904 77.4909 6.896C78.0349 5.872 78.7789 5.088 79.7229 4.544C80.6829 3.984 81.7629 3.704 82.9629 3.704C84.2109 3.704 85.2829 3.992 86.1789 4.568C87.0909 5.144 87.7469 5.88 88.1469 6.776V3.896H89.8269V17H88.1469V14.096C87.7309 14.992 87.0669 15.736 86.1549 16.328C85.2589 16.904 84.1869 17.192 82.9389 17.192C81.7549 17.192 80.6829 16.912 79.7229 16.352C78.7789 15.792 78.0349 15 77.4909 13.976C76.9629 12.952 76.6989 11.768 76.6989 10.424ZM88.1469 10.448C88.1469 9.392 87.9309 8.464 87.4989 7.664C87.0669 6.864 86.4749 6.248 85.7229 5.816C84.9869 5.384 84.1709 5.168 83.2749 5.168C82.3469 5.168 81.5149 5.376 80.7789 5.792C80.0429 6.208 79.4589 6.816 79.0269 7.616C78.6109 8.4 78.4029 9.336 78.4029 10.424C78.4029 11.496 78.6109 12.44 79.0269 13.256C79.4589 14.056 80.0429 14.672 80.7789 15.104C81.5149 15.52 82.3469 15.728 83.2749 15.728C84.1709 15.728 84.9869 15.512 85.7229 15.08C86.4749 14.648 87.0669 14.032 87.4989 13.232C87.9309 12.432 88.1469 11.504 88.1469 10.448ZM99.1582 3.704C100.39 3.704 101.462 3.992 102.374 4.568C103.286 5.144 103.942 5.872 104.342 6.752V3.896H106.022V17.336C106.022 18.536 105.758 19.6 105.23 20.528C104.718 21.456 103.998 22.168 103.07 22.664C102.142 23.176 101.086 23.432 99.9022 23.432C98.2222 23.432 96.8222 23.032 95.7022 22.232C94.5982 21.432 93.9102 20.344 93.6382 18.968H95.2942C95.5822 19.88 96.1262 20.608 96.9262 21.152C97.7422 21.696 98.7342 21.968 99.9022 21.968C100.75 21.968 101.51 21.784 102.182 21.416C102.854 21.064 103.382 20.536 103.766 19.832C104.15 19.128 104.342 18.296 104.342 17.336V14.096C103.926 14.992 103.262 15.736 102.35 16.328C101.454 16.904 100.39 17.192 99.1582 17.192C97.9582 17.192 96.8782 16.912 95.9182 16.352C94.9742 15.792 94.2302 15 93.6862 13.976C93.1582 12.952 92.8942 11.768 92.8942 10.424C92.8942 9.08 93.1582 7.904 93.6862 6.896C94.2302 5.872 94.9742 5.088 95.9182 4.544C96.8782 3.984 97.9582 3.704 99.1582 3.704ZM104.342 10.448C104.342 9.392 104.126 8.464 103.694 7.664C103.262 6.864 102.67 6.248 101.918 5.816C101.182 5.384 100.366 5.168 99.4702 5.168C98.5422 5.168 97.7102 5.376 96.9742 5.792C96.2382 6.208 95.6542 6.816 95.2222 7.616C94.8062 8.4 94.5982 9.336 94.5982 10.424C94.5982 11.496 94.8062 12.44 95.2222 13.256C95.6542 14.056 96.2382 14.672 96.9742 15.104C97.7102 15.52 98.5422 15.728 99.4702 15.728C100.366 15.728 101.182 15.512 101.918 15.08C102.67 14.648 103.262 14.032 103.694 13.232C104.126 12.432 104.342 11.504 104.342 10.448Z" fill="#445BC7"/>
</svg>
