<svg width="43" height="36" viewBox="0 0 43 36" fill="none" xmlns="http://www.w3.org/2000/svg">
<path d="M10.2279 20.2857C14.6381 24.0785 21.9094 29.3885 32.4009 20.2857M9.5759 21.0439C11.7912 22.9491 14.8889 25.3902 18.8564 26.1057C22.8985 26.8346 27.6356 25.7442 33.0563 21.041L31.7456 19.5304C26.6747 23.93 22.5304 24.736 19.2114 24.1374C15.8179 23.5255 13.0748 21.4151 10.88 19.5275L9.5759 21.0439ZM5.3293 14.3226L5.35518 14.2995L5.3794 14.2747C6.23103 13.4009 7.55421 11.9472 8.77512 10.4057C9.97005 8.89701 11.162 7.18815 11.6412 5.83091C11.7051 5.64978 11.9054 5.31712 12.3182 4.87601C12.7157 4.45116 13.2593 3.9799 13.9267 3.51461C15.2634 2.5828 17.0398 1.71446 19.0203 1.28371C20.9948 0.85425 23.1504 0.863509 25.2851 1.65178C27.3787 2.42487 29.5208 3.97241 31.4821 6.72675C31.9421 8.30774 33.6678 11.6133 37.4569 14.694C39.7436 16.5531 41.1897 18.4276 41.743 20.7364C42.291 23.023 42.0027 25.8989 40.4846 29.8501C39.8069 30.4938 38.6868 31.4363 37.3829 32.3037C35.9622 33.2489 34.4068 34.0485 33.0155 34.3294C31.5415 34.6269 28.023 34.8079 24.113 34.9044C20.2588 34.9996 16.1411 35.0112 13.517 34.9925C12.3122 34.919 10.329 34.5849 8.35903 33.8199C6.36428 33.0452 4.50273 31.8756 3.4105 30.2099C1.91776 27.9333 0.913496 25.2904 1.0059 22.5856C1.09713 19.915 2.26049 17.0627 5.3293 14.3226Z" fill="#445BC7" stroke="white" stroke-width="2"/>
</svg>
